<svg width="24" height="24" viewBox="0 0 24 24" fill="none" xmlns="http://www.w3.org/2000/svg">
<path fill-rule="evenodd" clip-rule="evenodd" d="M3.28872 4.08797L3.36127 4.01216C5.28869 2.08456 6.54385 1.57363 7.88307 2.34374C8.2683 2.56527 8.62945 2.87535 9.12054 3.37413L10.6269 4.93616C11.4589 5.84405 11.6481 6.7149 11.3772 7.73477L11.3398 7.86979L11.2984 8.00404L11.097 8.59487C10.666 9.91984 10.846 10.6674 12.3795 12.2005C13.9742 13.7948 14.7186 13.9252 16.1457 13.4265L16.4001 13.3381L16.7077 13.2382L16.8423 13.2008C17.9263 12.9116 18.842 13.1424 19.8132 14.1129L21.0269 15.2853L21.3842 15.6367C21.7803 16.0407 22.0421 16.3607 22.2355 16.699C23.0008 18.0378 22.4893 19.2922 20.5063 21.2678L20.3177 21.459C20.0216 21.7443 19.745 21.9488 19.3386 22.1417C18.6565 22.4656 17.8506 22.5877 16.9142 22.4575C14.6067 22.1366 11.6802 20.3159 7.97188 16.6086C7.67002 16.3068 7.3809 16.0108 7.10425 15.7206L6.56748 15.1477C1.53762 9.68297 1.09389 6.326 3.15518 4.22063L3.28872 4.08797ZM7.90639 4.28163C7.58059 3.96044 7.34393 3.76464 7.13529 3.64466C6.67376 3.37926 6.17547 3.49145 5.25327 4.28518L4.9635 4.54405C4.91296 4.5907 4.86126 4.63914 4.80835 4.68939L4.47608 5.01302L4.44614 5.05043L4.22088 5.27673C3.67653 5.83275 3.41868 6.51134 3.64088 7.67837C4.00548 9.5934 5.67439 12.1912 9.03238 15.5484C12.5313 19.0464 15.1971 20.7048 17.1208 20.9723C18.2422 21.1283 18.8142 20.8567 19.3975 20.2591L19.8424 19.8102C20.051 19.5919 20.2292 19.394 20.3797 19.2133L20.585 18.9546C21.1097 18.2558 21.1576 17.8365 20.9332 17.444C20.8478 17.2946 20.7236 17.1309 20.5429 16.9307L20.2976 16.6717L20.1525 16.5265L18.6212 15.0479C18.1095 14.576 17.7599 14.5091 17.2289 14.6507L17.0757 14.6948L16.4414 14.9101C14.6013 15.5044 13.2738 15.2162 11.3189 13.2619C9.29427 11.2378 9.05682 9.88608 9.73519 7.93988L9.77871 7.81481L9.89905 7.45224L9.95821 7.22113C10.0631 6.71817 9.94334 6.36748 9.40266 5.82671C9.3804 5.80445 9.35552 5.77937 9.32845 5.75191L7.90639 4.28163Z" fill="#939393"/>
</svg>
